{
    "asset": {
        "generator": "Noesis",
        "version": "2.0"
    },
    "scene": 0,
    "scenes": [
        {
            "nodes": [
                0,
                1,
                2
            ]
        }
    ],
    "nodes": [
        {
            "name": "mesh0_noesis_meshnode_0000",
            "translation": [
                0.0,
                0.0,
                0.0
            ],
            "rotation": [
                0.0,
                0.0,
                0.0,
                1.0
            ],
            "scale": [
                1.0,
                1.0,
                1.0
            ],
            "mesh": 0,
            "skin": 0
        },
        {
            "name": "mesh1_noesis_meshnode_0001",
            "translation": [
                0.0,
                0.0,
                0.0
            ],
            "rotation": [
                0.0,
                0.0,
                0.0,
                1.0
            ],
            "scale": [
                1.0,
                1.0,
                1.0
            ],
            "mesh": 1,
            "skin": 0
        },
        {
            "name": "root",
            "children": [
                3
            ],
            "translation": [
                0.0,
                -0.0,
                0.0
            ],
            "rotation": [
                -0.0,
                0.0,
                -0.0,
                1.0
            ],
            "scale": [
                1.0,
                1.0,
                1.0
            ]
        },
        {
            "name": "turret",
            "children": [
                4,
                9,
                14
            ],
            "translation": [
                0.0,
                0.0,
                0.02655029296875
            ],
            "rotation": [
                0.70710670948028564453125,
                0.000000006876125002719390977290458977222442626953125,
                0.0000001754634837425328441895544528961181640625,
                0.7071068286895751953125
            ],
            "scale": [
                1.0,
                0.999999940395355224609375,
                0.999999940395355224609375
            ]
        },
        {
            "name": "R_antenna_01",
            "children": [
                5
            ],
            "translation": [
                -186.021087646484375,
                64.46337890625,
                94.30704498291015625
            ],
            "rotation": [
                0.00000000000000088817841970012523233890533447265625,
                -0.0000000836558768924078322015702724456787109375,
                0.0,
                1.0
            ],
            "scale": [
                1.0,
                0.99999988079071044921875,
                0.99999988079071044921875
            ]
        },
        {
            "name": "R_antenna_02",
            "children": [
                6
            ],
            "translation": [
                0.0000152587890625,
                25.99999237060546875,
                0.0
            ],
            "rotation": [
                -0.0000000000000426325709218695891866701686012675054371356964111328,
                -0.0000003276226152593153528869152069091796875,
                -0.0000001192092753399265347979962825775146484375,
                1.0
            ],
            "scale": [
                1.0,
                0.99999988079071044921875,
                0.99999988079071044921875
            ]
        },
        {
            "name": "R_antenna_03",
            "children": [
                7
            ],
            "translation": [
                0.0,
                25.99999237060546875,
                0.0
            ],
            "rotation": [
                0.0,
                0.000000229248513505808659829199314117431640625,
                0.0000000000000000000050821976835258020344099350040778517723083496,
                1.0
            ],
            "scale": [
                1.0,
                0.99999988079071044921875,
                0.99999988079071044921875
            ]
        },
        {
            "name": "R_antenna_04",
            "children": [
                8
            ],
            "translation": [
                -0.0000152587890625,
                26.0000457763671875,
                -0.00000762939453125
            ],
            "rotation": [
                -0.000000146719258964367327280342578887939453125,
                0.0000002292488403554671094752848148345947265625,
                -0.0000000000000180546953120397021819165672695817193016409873962402,
                1.0
            ],
            "scale": [
                1.0,
                0.99999988079071044921875,
                0.99999988079071044921875
            ]
        },
        {
            "name": "R_antenna_05",
            "translation": [
                0.0,
                25.999969482421875,
                0.0000152587890625
            ],
            "rotation": [
                -0.0000000000003410605673749567134933613488101400434970855712890625,
                0.0000002292489540423048310913145542144775390625,
                0.0000005868770358574693091213703155517578125,
                1.0
            ],
            "scale": [
                1.0,
                0.99999988079071044921875,
                0.99999988079071044921875
            ]
        },
        {
            "name": "L_antenna_01",
            "children": [
                10
            ],
            "translation": [
                -186.0211181640625,
                64.46376800537109375,
                -94.30693817138671875
            ],
            "rotation": [
                0.0000000000000257571758653695262464289328363520326092839241027832,
                -0.0000000836558911032625474035739898681640625,
                0.00000029343840424189693294465541839599609375,
                1.0
            ],
            "scale": [
                1.0,
                0.99999988079071044921875,
                0.99999988079071044921875
            ]
        },
        {
            "name": "L_antenna_02",
            "children": [
                11
            ],
            "translation": [
                0.0000152587890625,
                25.9999847412109375,
                -0.00000762939453125
            ],
            "rotation": [
                -0.0000000000004067857433277116685488294933747965842485427856445313,
                0.0000005893720071981078945100307464599609375,
                0.00000046766712102908059023320674896240234375,
                1.0
            ],
            "scale": [
                1.0,
                0.99999988079071044921875,
                0.99999988079071044921875
            ]
        },
        {
            "name": "L_antenna_03",
            "children": [
                12
            ],
            "translation": [
                0.0,
                26.0,
                0.0
            ],
            "rotation": [
                -0.00000000000018740564655672642402350902557373046875,
                -0.0000013754907968177576549351215362548828125,
                -0.00000176062849277514033019542694091796875,
                1.0
            ],
            "scale": [
                1.0,
                0.99999988079071044921875,
                0.99999988079071044921875
            ]
        },
        {
            "name": "L_antenna_04",
            "children": [
                13
            ],
            "translation": [
                -0.0000152587890625,
                26.0000152587890625,
                0.0
            ],
            "rotation": [
                0.00000000000018740564655672642402350902557373046875,
                0.0000013754917063124594278633594512939453125,
                0.0000017606292885830043815076351165771484375,
                1.0
            ],
            "scale": [
                1.0,
                0.99999988079071044921875,
                0.99999988079071044921875
            ]
        },
        {
            "name": "L_antenna_05",
            "translation": [
                0.0000152587890625,
                25.999969482421875,
                0.0
            ],
            "rotation": [
                0.0000000000004138912248954212946827624364232178777456283569335938,
                -0.00000091699581616921932436525821685791015625,
                -0.0000011737539580281008966267108917236328125,
                1.0
            ],
            "scale": [
                1.0,
                0.99999988079071044921875,
                0.99999988079071044921875
            ]
        },
        {
            "name": "main_gun",
            "translation": [
                140.6845550537109375,
                5.535354137420654296875,
                7.15336132049560546875
            ],
            "rotation": [
                0.5000002384185791015625,
                0.4999997615814208984375,
                0.50000011920928955078125,
                -0.49999988079071044921875
            ],
            "scale": [
                0.99999988079071044921875,
                1.0,
                0.99999988079071044921875
            ]
        }
    ],
    "meshes": [
        {
            "primitives": [
                {
                    "attributes": {
                        "POSITION": 1,
                        "NORMAL": 2,
                        "TANGENT": 3,
                        "TEXCOORD_0": 4,
                        "JOINTS_0": 5,
                        "WEIGHTS_0": 6
                    },
                    "indices": 0,
                    "material": 0,
                    "mode": 4
                }
            ],
            "name": "mesh0"
        },
        {
            "primitives": [
                {
                    "attributes": {
                        "POSITION": 8,
                        "NORMAL": 9,
                        "TANGENT": 10,
                        "TEXCOORD_0": 11,
                        "JOINTS_0": 12,
                        "WEIGHTS_0": 13
                    },
                    "indices": 7,
                    "material": 1,
                    "mode": 4
                }
            ],
            "name": "mesh1"
        }
    ],
    "skins": [
        {
            "inverseBindMatrices": 14,
            "joints": [
                3,
                2,
                9,
                10,
                7,
                8,
                12,
                13,
                6,
                5,
                4,
                11
            ]
        }
    ],
    "materials": [
        {
            "pbrMetallicRoughness": {
                "metallicFactor": 0.0
            },
            "name": "material_0"
        },
        {
            "pbrMetallicRoughness": {
                "metallicFactor": 0.0
            },
            "name": "material_1"
        }
    ],
    "accessors": [
        {
            "bufferView": 0,
            "byteOffset": 0,
            "componentType": 5123,
            "count": 13452,
            "max": [
                4932
            ],
            "min": [
                0
            ],
            "type": "SCALAR"
        },
        {
            "bufferView": 1,
            "byteOffset": 0,
            "componentType": 5126,
            "count": 4933,
            "max": [
                203.3430938720703125,
                152.4443817138671875,
                59.544963836669921875
            ],
            "min": [
                -251.611724853515625,
                -161.1463165283203125,
                -13.8022327423095703125
            ],
            "type": "VEC3"
        },
        {
            "bufferView": 2,
            "byteOffset": 0,
            "componentType": 5126,
            "count": 4933,
            "max": [
                1.0,
                1.0,
                1.0
            ],
            "min": [
                -1.0,
                -1.0,
                -1.0
            ],
            "type": "VEC3"
        },
        {
            "bufferView": 3,
            "byteOffset": 0,
            "componentType": 5126,
            "count": 4933,
            "max": [
                1.0,
                1.0,
                1.0,
                1.0
            ],
            "min": [
                -1.0,
                -1.0,
                -1.0,
                -1.0
            ],
            "type": "VEC4"
        },
        {
            "bufferView": 4,
            "byteOffset": 0,
            "componentType": 5126,
            "count": 4933,
            "max": [
                0.9970703125,
                0.9970703125
            ],
            "min": [
                0.00250244140625,
                0.002532958984375
            ],
            "type": "VEC2"
        },
        {
            "bufferView": 5,
            "byteOffset": 0,
            "componentType": 5123,
            "count": 4933,
            "max": [
                0,
                0,
                0,
                0
            ],
            "min": [
                0,
                0,
                0,
                0
            ],
            "type": "VEC4"
        },
        {
            "bufferView": 6,
            "byteOffset": 0,
            "componentType": 5126,
            "count": 4933,
            "max": [
                1.0,
                0.0,
                0.0,
                0.0
            ],
            "min": [
                1.0,
                0.0,
                0.0,
                0.0
            ],
            "type": "VEC4"
        },
        {
            "bufferView": 0,
            "byteOffset": 26904,
            "componentType": 5123,
            "count": 31611,
            "max": [
                9345
            ],
            "min": [
                0
            ],
            "type": "SCALAR"
        },
        {
            "bufferView": 7,
            "byteOffset": 0,
            "componentType": 5126,
            "count": 9346,
            "max": [
                214.9731903076171875,
                149.6336669921875,
                169.1893463134765625
            ],
            "min": [
                -250.3159637451171875,
                -159.8377838134765625,
                -52.401432037353515625
            ],
            "type": "VEC3"
        },
        {
            "bufferView": 8,
            "byteOffset": 0,
            "componentType": 5126,
            "count": 9346,
            "max": [
                1.0,
                1.0,
                1.0
            ],
            "min": [
                -1.0,
                -1.0,
                -1.0
            ],
            "type": "VEC3"
        },
        {
            "bufferView": 9,
            "byteOffset": 0,
            "componentType": 5126,
            "count": 9346,
            "max": [
                1.0,
                1.0,
                1.0,
                1.0
            ],
            "min": [
                -1.0,
                -1.0,
                -1.0,
                -1.0
            ],
            "type": "VEC4"
        },
        {
            "bufferView": 10,
            "byteOffset": 0,
            "componentType": 5126,
            "count": 9346,
            "max": [
                0.9970703125,
                0.9970703125
            ],
            "min": [
                0.0025310516357421875,
                0.0022869110107421875
            ],
            "type": "VEC2"
        },
        {
            "bufferView": 11,
            "byteOffset": 0,
            "componentType": 5123,
            "count": 9346,
            "max": [
                11,
                11,
                11,
                0
            ],
            "min": [
                0,
                0,
                0,
                0
            ],
            "type": "VEC4"
        },
        {
            "bufferView": 12,
            "byteOffset": 0,
            "componentType": 5126,
            "count": 9346,
            "max": [
                1.0,
                0.4823529422283172607421875,
                0.098039217293262481689453125,
                0.0
            ],
            "min": [
                0.517647087574005126953125,
                0.0,
                0.0,
                0.0
            ],
            "type": "VEC4"
        },
        {
            "bufferView": 13,
            "byteOffset": 0,
            "componentType": 5126,
            "count": 12,
            "max": [
                1.0,
                0.000001760627355906763114035129547119140625,
                0.00000126930126498336903750896453857421875,
                0.0,
                0.0000012693013786702067591249942779541015625,
                1.0,
                0.0,
                0.0,
                0.000001760630993885570205748081207275390625,
                0.999999940395355224609375,
                1.0,
                0.0,
                186.0215606689453125,
                0.0,
                94.30713653564453125,
                1.0
            ],
            "min": [
                1.0,
                -0.00000176063122125924564898014068603515625,
                -0.000001481682147641549818217754364013671875,
                0.0,
                -0.0000014816820339547120966017246246337890625,
                0.000000059604492008702436578460037708282470703125,
                -0.999999940395355224609375,
                0.0,
                -0.0000017606272422199253924190998077392578125,
                -0.0,
                0.000000059604506219557151780463755130767822265625,
                0.0,
                -0.000000006330082680250370685826055705547332763671875,
                -168.4901275634765625,
                -94.30719757080078125,
                1.0
            ],
            "type": "MAT4"
        }
    ],
    "bufferViews": [
        {
            "buffer": 0,
            "byteOffset": 0,
            "byteLength": 90128,
            "target": 34963
        },
        {
            "buffer": 0,
            "byteOffset": 90128,
            "byteLength": 59196,
            "byteStride": 12,
            "target": 34962
        },
        {
            "buffer": 0,
            "byteOffset": 149324,
            "byteLength": 59196,
            "byteStride": 12,
            "target": 34962
        },
        {
            "buffer": 0,
            "byteOffset": 208520,
            "byteLength": 78928,
            "byteStride": 16,
            "target": 34962
        },
        {
            "buffer": 0,
            "byteOffset": 287448,
            "byteLength": 39464,
            "byteStride": 8,
            "target": 34962
        },
        {
            "buffer": 0,
            "byteOffset": 326912,
            "byteLength": 39464,
            "byteStride": 8,
            "target": 34962
        },
        {
            "buffer": 0,
            "byteOffset": 366376,
            "byteLength": 78928,
            "byteStride": 16,
            "target": 34962
        },
        {
            "buffer": 0,
            "byteOffset": 445304,
            "byteLength": 112152,
            "byteStride": 12,
            "target": 34962
        },
        {
            "buffer": 0,
            "byteOffset": 557456,
            "byteLength": 112152,
            "byteStride": 12,
            "target": 34962
        },
        {
            "buffer": 0,
            "byteOffset": 669608,
            "byteLength": 149536,
            "byteStride": 16,
            "target": 34962
        },
        {
            "buffer": 0,
            "byteOffset": 819144,
            "byteLength": 74768,
            "byteStride": 8,
            "target": 34962
        },
        {
            "buffer": 0,
            "byteOffset": 893912,
            "byteLength": 74768,
            "byteStride": 8,
            "target": 34962
        },
        {
            "buffer": 0,
            "byteOffset": 968680,
            "byteLength": 149536,
            "byteStride": 16,
            "target": 34962
        },
        {
            "buffer": 0,
            "byteOffset": 1118216,
            "byteLength": 768
        }
    ],
    "buffers": [
        {
            "byteLength": 1118984,
            "uri": "M1A2_Turretout0.bin"
        }
    ]
}
